{"title":"Calvin Harris - Drinking From The Bottle (Ft. Tinie Tempah) {M4A","uid":7955889,"size":58181651,"categoryP":"video","categoryS":"music_videos","magnet":"?xt=urn:btih:f0589d01afbcda9cccc00bd47298790b2db56a42&amp;dn=Calvin+Harris+-+Drinking+From+The+Bottle+%28Ft.+Tinie+Tempah%29+%7BM4A&amp;tr=udp%3A%2F%2Ftracker.openbittorrent.com%3A80&amp;tr=udp%3A%2F%2Fopen.demonii.com%3A1337&amp;tr=udp%3A%2F%2Ftracker.coppersurfer.tk%3A6969&amp;tr=udp%3A%2F%2Fexodus.desync.com%3A6969","seeders":6,"leechers":5,"uploader":"Vitamin_X","files":-1,"time":1356427321,"description":"Calvin Harris - Drinking From The Bottle (Ft. Tinie Tempah) {M4A+MP4} (1080p) x264 [VX] [P2PDL]\n &lt;a href=&quot;\nhttp://www.shotpix.com/images/23122939120364246853.png&quot; rel=&quot;nofollow&quot; target=&quot;_NEW&quot;&gt;\nhttp://www.shotpix.com/images/23122939120364246853.png&lt;/a&gt;\n\n\nRelease Title: Calvin Harris Feat. Tinie Tempah - Drinking From The Bottle (2012)\n\n\n                                 1080p Full HD MP4 Video\n                                           +\n                                 128 Kbps/VBR M4A Audio\n\nGeneral\nFormat                         : MPEG-4\nFormat profile                 : Base Media / Version 2\nCodec ID                       : mp42\nFile size                      : 50.7 MiB\nDuration                       : 5mn 33s\n\nVideo\nID                             : 1\nFormat                         : AVC\nWidth                          : 1 920 pixels\nHeight                         : 816 pixels\nDisplay aspect ratio           : 2.35:1\nFrame rate mode                : Variable\nFrame rate                     : 23.976 fps\nColor space                    : YUV\nChroma subsampling             : 4:2:0\nBit depth                      : 8 bits\nScan type                      : Progressive\nBits/(Pixel*Frame)             : 0.030\nStream size                    : 45.4 MiB (90%)\nWriting library                : x264 core 128\n\nAudio\nID                             : 2\nFormat                         : AAC\nFormat/Info                    : Advanced Audio Codec\nFormat profile                 : LC\nCodec ID                       : 40\nDuration                       : 5mn 33s\nBit rate mode                  : Variable\nBit rate                       : 128 Kbps\nMaximum bit rate               : 294 Kbps\nChannel(s)                     : 2 channels\nChannel positions              : Front: L R\nSampling rate                  : 44.1 KHz\nCompression mode               : Lossy\nStream size                    : 5.09 MiB (10%)\n\n\nSubtitles                      : No\n\nScreens:\n &lt;a href=&quot;\nhttp://www.shotpix.com/images/26253416910685360786.jpg&quot; rel=&quot;nofollow&quot; target=&quot;_NEW&quot;&gt;\nhttp://www.shotpix.com/images/26253416910685360786.jpg&lt;/a&gt; &lt;a href=&quot;\nhttp://www.shotpix.com/images/33957762072947218105.jpg&quot; rel=&quot;nofollow&quot; target=&quot;_NEW&quot;&gt;\nhttp://www.shotpix.com/images/33957762072947218105.jpg&lt;/a&gt;\n\nThumbs:\n &lt;a href=&quot;\nhttp://www.shotpix.com/images/96829118429336597235.jpg&quot; rel=&quot;nofollow&quot; target=&quot;_NEW&quot;&gt;\nhttp://www.shotpix.com/images/96829118429336597235.jpg&lt;/a&gt;\n\n------------------------------------------------------------------------\n\nNotes:\n\n* Recommended to use latest version VLC Media Player.\n* Install shark007 codecs in case of any kind of problem in playback (For non-VLC Media Player users).\n* Alternatively, install Core AVC codecs, the fastest decoder that there is coupled with Community Center Codec Pack and play on Windows Media Player Classic.\n\nGreets to: VYTO, a2zRG, staff members at ExtraTorrent, TPB,KAT, 1337x, PublicHD, Ahashare, TorrentMafia, BTScene, P2PDL, and all others\n\nEncoder Notes: Looking For Early Access To Anything You Can Provide DVDScr, R5, DVDRips, BluRay, Direct Audio, Early Music\nReleases, Seedboxes, Links, Dedicated Servers anything u can provide, Advance / Promo CDs/DVDs. If You Got anything to\noffer contact me at &quot;&lt;a class=&quot;__cf_email__&quot; href=&quot;/cdn-cgi/l/email-protection&quot; data-cfemail=&quot;76060411361e03051e5815191b&quot;&gt;[email&amp;#160;protected]&lt;/a&gt;&lt;script cf-hash='f9e31' type=&quot;text/javascript&quot;&gt;\n/* &lt;![CDATA[ */!function(){try{var t=&quot;currentScript&quot;in document?document.currentScript:function(){for(var t=document.getElementsByTagName(&quot;script&quot;),e=t.length;e--;)if(t[e].getAttribute(&quot;cf-hash&quot;))return t[e]}();if(t&amp;&amp;t.previousSibling){var e,r,n,i,c=t.previousSibling,a=c.getAttribute(&quot;data-cfemail&quot;);if(a){for(e=&quot;&quot;,r=parseInt(a.substr(0,2),16),n=2;a.length-n;n+=2)i=parseInt(a.substr(n,2),16)^r,e+=String.fromCharCode(i);e=document.createTextNode(e),c.parentNode.replaceChild(e,c)}}}catch(u){}}();/* ]]&gt; */&lt;/script&gt;&quot;\n\nFacebook Fan Page: www . facebook . com / p2pdl","torrent":{"xt":"urn:btih:f0589d01afbcda9cccc00bd47298790b2db56a42","amp;dn":"Calvin+Harris+-+Drinking+From+The+Bottle+%28Ft.+Tinie+Tempah%29+%7BM4A","amp;tr":["udp%3A%2F%2Ftracker.openbittorrent.com%3A80","udp%3A%2F%2Fopen.demonii.com%3A1337","udp%3A%2F%2Ftracker.coppersurfer.tk%3A6969","udp%3A%2F%2Fexodus.desync.com%3A6969"],"infoHash":"f0589d01afbcda9cccc00bd47298790b2db56a42","infoHashBuffer":{"type":"Buffer","data":[240,88,157,1,175,188,218,156,204,192,11,212,114,152,121,11,45,181,106,66]},"announce":[],"urlList":[]}}